<mxfile host="app.diagrams.net" modified="2021-03-11T11:52:44.355Z" agent="5.0 (Windows NT 10.0; Win64; x64) AppleWebKit/537.36 (KHTML, like Gecko) Chrome/89.0.4389.82 Safari/537.36" etag="qC8XapPxoI_RZJwggvw-" version="14.4.3" type="github">
  <diagram id="lgXi9MjqHc_8DvUxfvyU" name="Page-1">
    <mxGraphModel dx="1808" dy="549" grid="1" gridSize="10" guides="1" tooltips="1" connect="1" arrows="1" fold="1" page="1" pageScale="1" pageWidth="827" pageHeight="1169" math="0" shadow="0">
      <root>
        <mxCell id="0" />
        <mxCell id="1" parent="0" />
        <mxCell id="vRhrMkSg3RcB3QoWlwg8-57" value="" style="rounded=0;whiteSpace=wrap;html=1;fontSize=16;" vertex="1" parent="1">
          <mxGeometry x="30" y="1100" width="550" height="221.25" as="geometry" />
        </mxCell>
        <mxCell id="vRhrMkSg3RcB3QoWlwg8-110" value="安全资源能力池" style="rounded=0;whiteSpace=wrap;html=1;fontSize=10;verticalAlign=top;fontStyle=1" vertex="1" parent="1">
          <mxGeometry x="57.05" y="1110" width="502.95" height="70.17" as="geometry" />
        </mxCell>
        <mxCell id="vRhrMkSg3RcB3QoWlwg8-21" value="安全场景" style="rounded=0;whiteSpace=wrap;html=1;fontSize=16;verticalAlign=top;" vertex="1" parent="1">
          <mxGeometry x="-40" y="250" width="260" height="140" as="geometry" />
        </mxCell>
        <mxCell id="vRhrMkSg3RcB3QoWlwg8-22" value="事件调查" style="rounded=1;whiteSpace=wrap;html=1;fontSize=16;" vertex="1" parent="1">
          <mxGeometry x="-30" y="350" width="109" height="30" as="geometry" />
        </mxCell>
        <mxCell id="vRhrMkSg3RcB3QoWlwg8-23" value="设备巡检" style="rounded=1;whiteSpace=wrap;html=1;fontSize=16;" vertex="1" parent="1">
          <mxGeometry x="-30" y="315" width="109" height="30" as="geometry" />
        </mxCell>
        <mxCell id="vRhrMkSg3RcB3QoWlwg8-24" value="资产暴露" style="rounded=1;whiteSpace=wrap;html=1;fontSize=16;" vertex="1" parent="1">
          <mxGeometry x="-30" y="280" width="109" height="30" as="geometry" />
        </mxCell>
        <mxCell id="vRhrMkSg3RcB3QoWlwg8-25" value="0Day响应" style="rounded=1;whiteSpace=wrap;html=1;fontSize=16;" vertex="1" parent="1">
          <mxGeometry x="100" y="280" width="109" height="30" as="geometry" />
        </mxCell>
        <mxCell id="vRhrMkSg3RcB3QoWlwg8-26" value="勒索软件" style="rounded=1;whiteSpace=wrap;html=1;fontSize=16;" vertex="1" parent="1">
          <mxGeometry x="100" y="315" width="109" height="30" as="geometry" />
        </mxCell>
        <mxCell id="vRhrMkSg3RcB3QoWlwg8-27" value="..." style="rounded=1;whiteSpace=wrap;html=1;fontSize=16;" vertex="1" parent="1">
          <mxGeometry x="100" y="350" width="109" height="30" as="geometry" />
        </mxCell>
        <mxCell id="vRhrMkSg3RcB3QoWlwg8-28" value="响应处置" style="rounded=0;whiteSpace=wrap;html=1;fontSize=16;verticalAlign=top;" vertex="1" parent="1">
          <mxGeometry x="290" y="250" width="390" height="100" as="geometry" />
        </mxCell>
        <mxCell id="vRhrMkSg3RcB3QoWlwg8-30" value="安全能力池" style="rounded=0;whiteSpace=wrap;html=1;fontSize=16;verticalAlign=top;" vertex="1" parent="1">
          <mxGeometry x="288" y="370" width="392" height="80" as="geometry" />
        </mxCell>
        <mxCell id="vRhrMkSg3RcB3QoWlwg8-31" value="&lt;font style=&quot;font-size: 9px&quot;&gt;策略安全能力&lt;/font&gt;" style="strokeWidth=1;html=1;shape=mxgraph.flowchart.database;whiteSpace=wrap;fontSize=9;verticalAlign=bottom;" vertex="1" parent="1">
          <mxGeometry x="70" y="1140" width="85" height="30" as="geometry" />
        </mxCell>
        <mxCell id="vRhrMkSg3RcB3QoWlwg8-32" value="资产发现能力" style="strokeWidth=1;html=1;shape=mxgraph.flowchart.database;whiteSpace=wrap;fontSize=10;verticalAlign=bottom;" vertex="1" parent="1">
          <mxGeometry x="167.5" y="1140" width="85" height="30" as="geometry" />
        </mxCell>
        <mxCell id="vRhrMkSg3RcB3QoWlwg8-33" value="漏洞扫描能力" style="strokeWidth=1;html=1;shape=mxgraph.flowchart.database;whiteSpace=wrap;fontSize=10;verticalAlign=bottom;" vertex="1" parent="1">
          <mxGeometry x="262.5" y="1140" width="85" height="30" as="geometry" />
        </mxCell>
        <mxCell id="vRhrMkSg3RcB3QoWlwg8-34" value="主机安全能力" style="strokeWidth=1;html=1;shape=mxgraph.flowchart.database;whiteSpace=wrap;fontSize=10;verticalAlign=bottom;" vertex="1" parent="1">
          <mxGeometry x="360" y="1138.8899999999999" width="85" height="30" as="geometry" />
        </mxCell>
        <mxCell id="vRhrMkSg3RcB3QoWlwg8-35" value="数据防护能力" style="strokeWidth=1;html=1;shape=mxgraph.flowchart.database;whiteSpace=wrap;fontSize=10;verticalAlign=bottom;" vertex="1" parent="1">
          <mxGeometry x="460" y="1138.8899999999999" width="85" height="30" as="geometry" />
        </mxCell>
        <mxCell id="vRhrMkSg3RcB3QoWlwg8-36" value="&lt;b style=&quot;font-size: 10px;&quot;&gt;```&lt;/b&gt;" style="strokeWidth=1;html=1;shape=mxgraph.flowchart.database;whiteSpace=wrap;fontSize=10;verticalAlign=bottom;" vertex="1" parent="1">
          <mxGeometry x="705" y="260" width="66" height="30" as="geometry" />
        </mxCell>
        <mxCell id="vRhrMkSg3RcB3QoWlwg8-37" value="漏洞扫描" style="rounded=1;whiteSpace=wrap;html=1;fontSize=16;" vertex="1" parent="1">
          <mxGeometry x="301" y="285" width="79" height="25" as="geometry" />
        </mxCell>
        <mxCell id="vRhrMkSg3RcB3QoWlwg8-38" value="基线核查" style="rounded=1;whiteSpace=wrap;html=1;fontSize=16;" vertex="1" parent="1">
          <mxGeometry x="300.5" y="317.5" width="79" height="25" as="geometry" />
        </mxCell>
        <mxCell id="vRhrMkSg3RcB3QoWlwg8-39" value="IP封堵" style="rounded=1;whiteSpace=wrap;html=1;fontSize=16;" vertex="1" parent="1">
          <mxGeometry x="400" y="285" width="79" height="25" as="geometry" />
        </mxCell>
        <mxCell id="vRhrMkSg3RcB3QoWlwg8-40" value="工单联动" style="rounded=1;whiteSpace=wrap;html=1;fontSize=16;" vertex="1" parent="1">
          <mxGeometry x="400" y="317.5" width="79" height="25" as="geometry" />
        </mxCell>
        <mxCell id="vRhrMkSg3RcB3QoWlwg8-42" value="入侵检测" style="rounded=1;whiteSpace=wrap;html=1;fontSize=16;" vertex="1" parent="1">
          <mxGeometry x="500" y="285" width="79" height="25" as="geometry" />
        </mxCell>
        <mxCell id="vRhrMkSg3RcB3QoWlwg8-43" value="系统告警" style="rounded=1;whiteSpace=wrap;html=1;fontSize=16;" vertex="1" parent="1">
          <mxGeometry x="500" y="317.5" width="79" height="25" as="geometry" />
        </mxCell>
        <mxCell id="vRhrMkSg3RcB3QoWlwg8-44" value="入侵检测" style="rounded=1;whiteSpace=wrap;html=1;fontSize=16;" vertex="1" parent="1">
          <mxGeometry x="590" y="285" width="79" height="25" as="geometry" />
        </mxCell>
        <mxCell id="vRhrMkSg3RcB3QoWlwg8-46" value="漏洞扫描" style="rounded=1;whiteSpace=wrap;html=1;fontSize=16;" vertex="1" parent="1">
          <mxGeometry x="480" y="164" width="79" height="25" as="geometry" />
        </mxCell>
        <mxCell id="vRhrMkSg3RcB3QoWlwg8-47" value="主机安全" style="rounded=1;whiteSpace=wrap;html=1;fontSize=16;" vertex="1" parent="1">
          <mxGeometry x="574" y="164" width="79" height="25" as="geometry" />
        </mxCell>
        <mxCell id="vRhrMkSg3RcB3QoWlwg8-48" value="入侵检测" style="rounded=1;whiteSpace=wrap;html=1;fontSize=16;" vertex="1" parent="1">
          <mxGeometry x="671" y="164" width="79" height="25" as="geometry" />
        </mxCell>
        <mxCell id="vRhrMkSg3RcB3QoWlwg8-49" value="消息" style="rounded=1;whiteSpace=wrap;html=1;fontSize=16;" vertex="1" parent="1">
          <mxGeometry x="761" y="164" width="79" height="25" as="geometry" />
        </mxCell>
        <mxCell id="vRhrMkSg3RcB3QoWlwg8-50" value="CMDB" style="rounded=1;whiteSpace=wrap;html=1;fontSize=16;" vertex="1" parent="1">
          <mxGeometry x="850" y="164" width="79" height="25" as="geometry" />
        </mxCell>
        <mxCell id="vRhrMkSg3RcB3QoWlwg8-51" value="防火墙" style="rounded=1;whiteSpace=wrap;html=1;fontSize=16;" vertex="1" parent="1">
          <mxGeometry x="482" y="202" width="79" height="25" as="geometry" />
        </mxCell>
        <mxCell id="vRhrMkSg3RcB3QoWlwg8-52" value="WAF" style="rounded=1;whiteSpace=wrap;html=1;fontSize=16;" vertex="1" parent="1">
          <mxGeometry x="574" y="202" width="79" height="25" as="geometry" />
        </mxCell>
        <mxCell id="vRhrMkSg3RcB3QoWlwg8-53" value="态势感知" style="rounded=1;whiteSpace=wrap;html=1;fontSize=16;" vertex="1" parent="1">
          <mxGeometry x="671" y="202" width="79" height="25" as="geometry" />
        </mxCell>
        <mxCell id="vRhrMkSg3RcB3QoWlwg8-54" value="jira" style="rounded=1;whiteSpace=wrap;html=1;fontSize=16;" vertex="1" parent="1">
          <mxGeometry x="761" y="202" width="79" height="25" as="geometry" />
        </mxCell>
        <mxCell id="vRhrMkSg3RcB3QoWlwg8-55" value="交换机" style="rounded=1;whiteSpace=wrap;html=1;fontSize=16;" vertex="1" parent="1">
          <mxGeometry x="850" y="202" width="79" height="25" as="geometry" />
        </mxCell>
        <mxCell id="vRhrMkSg3RcB3QoWlwg8-56" value="短信通知" style="rounded=1;whiteSpace=wrap;html=1;fontSize=16;" vertex="1" parent="1">
          <mxGeometry x="590" y="317.5" width="79" height="25" as="geometry" />
        </mxCell>
        <mxCell id="vRhrMkSg3RcB3QoWlwg8-60" value="" style="shape=flexArrow;endArrow=classic;html=1;fontSize=16;" edge="1" parent="1">
          <mxGeometry width="50" height="50" relative="1" as="geometry">
            <mxPoint x="830" y="880" as="sourcePoint" />
            <mxPoint x="830" y="830" as="targetPoint" />
          </mxGeometry>
        </mxCell>
        <mxCell id="vRhrMkSg3RcB3QoWlwg8-63" value="" style="shape=flexArrow;endArrow=classic;html=1;fontSize=16;entryX=0.637;entryY=0.008;entryDx=0;entryDy=0;entryPerimeter=0;" edge="1" parent="1">
          <mxGeometry width="50" height="50" relative="1" as="geometry">
            <mxPoint x="827" y="888.12" as="sourcePoint" />
            <mxPoint x="827.387" y="931.88" as="targetPoint" />
            <Array as="points">
              <mxPoint x="827" y="898.12" />
            </Array>
          </mxGeometry>
        </mxCell>
        <mxCell id="vRhrMkSg3RcB3QoWlwg8-64" value="管理调度处置响应" style="text;html=1;strokeColor=none;fillColor=none;align=center;verticalAlign=middle;whiteSpace=wrap;rounded=0;fontSize=16;" vertex="1" parent="1">
          <mxGeometry x="866" y="900" width="78" height="20" as="geometry" />
        </mxCell>
        <mxCell id="vRhrMkSg3RcB3QoWlwg8-61" value="动作能力开放" style="text;html=1;strokeColor=none;fillColor=none;align=center;verticalAlign=middle;whiteSpace=wrap;rounded=0;fontSize=16;" vertex="1" parent="1">
          <mxGeometry x="850" y="850" width="110" height="18.89" as="geometry" />
        </mxCell>
        <mxCell id="vRhrMkSg3RcB3QoWlwg8-58" value="安全原子能力池" style="shape=parallelogram;perimeter=parallelogramPerimeter;whiteSpace=wrap;html=1;fixedSize=1;fontSize=16;fillColor=#0050ef;strokeColor=#001DBC;fontColor=#ffffff;" vertex="1" parent="1">
          <mxGeometry x="30" y="1075.58" width="198.93617021276597" height="24.41770186335404" as="geometry" />
        </mxCell>
        <mxCell id="vRhrMkSg3RcB3QoWlwg8-72" value="" style="group" vertex="1" connectable="0" parent="1">
          <mxGeometry x="57.05045754596708" y="1180.1699447895098" width="309.14808623962375" height="130.22774327122153" as="geometry" />
        </mxCell>
        <mxCell id="vRhrMkSg3RcB3QoWlwg8-97" value="" style="group" vertex="1" connectable="0" parent="vRhrMkSg3RcB3QoWlwg8-72">
          <mxGeometry y="10.852311939268462" width="231.8610646797178" height="119.37543133195307" as="geometry" />
        </mxCell>
        <mxCell id="vRhrMkSg3RcB3QoWlwg8-65" value="&lt;b&gt;云网安全能力插件&lt;/b&gt;" style="rounded=0;whiteSpace=wrap;html=1;fontSize=16;verticalAlign=top;" vertex="1" parent="vRhrMkSg3RcB3QoWlwg8-97">
          <mxGeometry width="231.8610646797178" height="119.37543133195307" as="geometry" />
        </mxCell>
        <mxCell id="vRhrMkSg3RcB3QoWlwg8-71" value="天翼云/公有云" style="rounded=0;whiteSpace=wrap;html=1;fontSize=16;fillColor=#0050ef;strokeColor=#001DBC;fontColor=#ffffff;" vertex="1" parent="vRhrMkSg3RcB3QoWlwg8-97">
          <mxGeometry y="97.67080745341616" width="231.8610646797178" height="21.704623878536925" as="geometry" />
        </mxCell>
        <mxCell id="vRhrMkSg3RcB3QoWlwg8-81" value="VPN" style="pointerEvents=1;shadow=0;dashed=0;html=1;strokeColor=none;fillColor=#434445;aspect=fixed;labelPosition=center;verticalLabelPosition=bottom;verticalAlign=top;align=center;outlineConnect=0;shape=mxgraph.vvd.vpn;fontSize=10;" vertex="1" parent="vRhrMkSg3RcB3QoWlwg8-97">
          <mxGeometry x="111.10009349236478" y="38.543474810213944" width="19.307589880159785" height="19.307589880159785" as="geometry" />
        </mxCell>
        <mxCell id="vRhrMkSg3RcB3QoWlwg8-85" value="WAF" style="pointerEvents=1;shadow=0;dashed=0;html=1;strokeColor=none;fillColor=#434445;aspect=fixed;labelPosition=center;verticalLabelPosition=bottom;verticalAlign=top;align=center;outlineConnect=0;shape=mxgraph.vvd.protection_group_config;fontSize=12;" vertex="1" parent="vRhrMkSg3RcB3QoWlwg8-97">
          <mxGeometry x="155.0087826160863" y="38.543474810213944" width="22.474034620505993" height="23.169107856191744" as="geometry" />
        </mxCell>
        <mxCell id="vRhrMkSg3RcB3QoWlwg8-91" value="IPS" style="pointerEvents=1;shadow=0;dashed=0;html=1;strokeColor=none;fillColor=#434445;aspect=fixed;labelPosition=center;verticalLabelPosition=bottom;verticalAlign=top;align=center;outlineConnect=0;shape=mxgraph.vvd.protection_group;fontSize=12;" vertex="1" parent="vRhrMkSg3RcB3QoWlwg8-97">
          <mxGeometry x="62.79570501742357" y="38.546935817805384" width="22.242343541944074" height="23.169107856191744" as="geometry" />
        </mxCell>
        <mxCell id="vRhrMkSg3RcB3QoWlwg8-90" value="NFW" style="pointerEvents=1;shadow=0;dashed=0;html=1;strokeColor=none;fillColor=#434445;aspect=fixed;labelPosition=center;verticalLabelPosition=bottom;verticalAlign=top;align=center;outlineConnect=0;shape=mxgraph.vvd.logical_firewall;fontSize=12;" vertex="1" parent="vRhrMkSg3RcB3QoWlwg8-97">
          <mxGeometry x="14.491316542482362" y="36.616935817805384" width="20.605059920106523" height="21.238348868175766" as="geometry" />
        </mxCell>
        <mxCell id="vRhrMkSg3RcB3QoWlwg8-96" value="&lt;b&gt;&lt;font style=&quot;font-size: 14px&quot;&gt;...&lt;/font&gt;&lt;/b&gt;" style="pointerEvents=1;shadow=0;dashed=0;html=1;strokeColor=none;fillColor=#434445;aspect=fixed;labelPosition=center;verticalLabelPosition=bottom;verticalAlign=top;align=center;outlineConnect=0;shape=mxgraph.vvd.volumes_agent;fontSize=12;" vertex="1" parent="vRhrMkSg3RcB3QoWlwg8-97">
          <mxGeometry x="192.8504405473553" y="38.543474810213944" width="23.46258322237017" height="23.941411451398135" as="geometry" />
        </mxCell>
        <mxCell id="vRhrMkSg3RcB3QoWlwg8-111" value="NFW" style="pointerEvents=1;shadow=0;dashed=0;html=1;strokeColor=none;fillColor=#434445;aspect=fixed;labelPosition=center;verticalLabelPosition=bottom;verticalAlign=top;align=center;outlineConnect=0;shape=mxgraph.vvd.logical_firewall;fontSize=12;" vertex="1" parent="vRhrMkSg3RcB3QoWlwg8-97">
          <mxGeometry x="14.491316542482366" y="36.61693581780537" width="20.605059920106523" height="21.238348868175766" as="geometry" />
        </mxCell>
        <mxCell id="vRhrMkSg3RcB3QoWlwg8-112" value="IPS" style="pointerEvents=1;shadow=0;dashed=0;html=1;strokeColor=none;fillColor=#434445;aspect=fixed;labelPosition=center;verticalLabelPosition=bottom;verticalAlign=top;align=center;outlineConnect=0;shape=mxgraph.vvd.protection_group;fontSize=12;" vertex="1" parent="vRhrMkSg3RcB3QoWlwg8-97">
          <mxGeometry x="62.79570501742356" y="38.54693581780543" width="22.242343541944074" height="23.169107856191744" as="geometry" />
        </mxCell>
        <mxCell id="vRhrMkSg3RcB3QoWlwg8-113" value="VPN" style="pointerEvents=1;shadow=0;dashed=0;html=1;strokeColor=none;fillColor=#434445;aspect=fixed;labelPosition=center;verticalLabelPosition=bottom;verticalAlign=top;align=center;outlineConnect=0;shape=mxgraph.vvd.vpn;fontSize=10;" vertex="1" parent="vRhrMkSg3RcB3QoWlwg8-97">
          <mxGeometry x="111.10009349236478" y="38.54347481021398" width="19.307589880159785" height="19.307589880159785" as="geometry" />
        </mxCell>
        <mxCell id="vRhrMkSg3RcB3QoWlwg8-114" value="NFW" style="pointerEvents=1;shadow=0;dashed=0;html=1;strokeColor=none;fillColor=#434445;aspect=fixed;labelPosition=center;verticalLabelPosition=bottom;verticalAlign=top;align=center;outlineConnect=0;shape=mxgraph.vvd.logical_firewall;fontSize=12;" vertex="1" parent="vRhrMkSg3RcB3QoWlwg8-97">
          <mxGeometry x="14.491316542482366" y="36.61693581780537" width="20.605059920106523" height="21.238348868175766" as="geometry" />
        </mxCell>
        <mxCell id="vRhrMkSg3RcB3QoWlwg8-115" value="IPS" style="pointerEvents=1;shadow=0;dashed=0;html=1;strokeColor=none;fillColor=#434445;aspect=fixed;labelPosition=center;verticalLabelPosition=bottom;verticalAlign=top;align=center;outlineConnect=0;shape=mxgraph.vvd.protection_group;fontSize=12;" vertex="1" parent="vRhrMkSg3RcB3QoWlwg8-97">
          <mxGeometry x="62.79570501742356" y="38.54693581780543" width="22.242343541944074" height="23.169107856191744" as="geometry" />
        </mxCell>
        <mxCell id="vRhrMkSg3RcB3QoWlwg8-116" value="VPN" style="pointerEvents=1;shadow=0;dashed=0;html=1;strokeColor=none;fillColor=#434445;aspect=fixed;labelPosition=center;verticalLabelPosition=bottom;verticalAlign=top;align=center;outlineConnect=0;shape=mxgraph.vvd.vpn;fontSize=10;" vertex="1" parent="vRhrMkSg3RcB3QoWlwg8-97">
          <mxGeometry x="111.10009349236478" y="38.54347481021398" width="19.307589880159785" height="19.307589880159785" as="geometry" />
        </mxCell>
        <mxCell id="vRhrMkSg3RcB3QoWlwg8-117" value="WAF" style="pointerEvents=1;shadow=0;dashed=0;html=1;strokeColor=none;fillColor=#434445;aspect=fixed;labelPosition=center;verticalLabelPosition=bottom;verticalAlign=top;align=center;outlineConnect=0;shape=mxgraph.vvd.protection_group_config;fontSize=12;" vertex="1" parent="vRhrMkSg3RcB3QoWlwg8-97">
          <mxGeometry x="155.0087826160863" y="38.54347481021398" width="22.474034620505993" height="23.169107856191744" as="geometry" />
        </mxCell>
        <mxCell id="vRhrMkSg3RcB3QoWlwg8-99" value="" style="group" vertex="1" connectable="0" parent="1">
          <mxGeometry x="328.1878468425078" y="1191.0222567287783" width="231.8610646797178" height="119.37543133195307" as="geometry" />
        </mxCell>
        <mxCell id="vRhrMkSg3RcB3QoWlwg8-100" value="&lt;b&gt;云网安全能力插件&lt;/b&gt;" style="rounded=0;whiteSpace=wrap;html=1;fontSize=16;verticalAlign=top;" vertex="1" parent="vRhrMkSg3RcB3QoWlwg8-99">
          <mxGeometry width="231.8610646797178" height="119.37543133195307" as="geometry" />
        </mxCell>
        <mxCell id="vRhrMkSg3RcB3QoWlwg8-101" value="IDC/私有云" style="rounded=0;whiteSpace=wrap;html=1;fontSize=16;fillColor=#0050ef;strokeColor=#001DBC;fontColor=#ffffff;" vertex="1" parent="vRhrMkSg3RcB3QoWlwg8-99">
          <mxGeometry y="97.67080745341616" width="231.8610646797178" height="21.704623878536925" as="geometry" />
        </mxCell>
        <mxCell id="vRhrMkSg3RcB3QoWlwg8-102" value="VPN" style="pointerEvents=1;shadow=0;dashed=0;html=1;strokeColor=none;fillColor=#434445;aspect=fixed;labelPosition=center;verticalLabelPosition=bottom;verticalAlign=top;align=center;outlineConnect=0;shape=mxgraph.vvd.vpn;fontSize=10;" vertex="1" parent="vRhrMkSg3RcB3QoWlwg8-99">
          <mxGeometry x="111.45009349236477" y="36.41347481021394" width="19.307589880159785" height="19.307589880159785" as="geometry" />
        </mxCell>
        <mxCell id="vRhrMkSg3RcB3QoWlwg8-103" value="WAF" style="pointerEvents=1;shadow=0;dashed=0;html=1;strokeColor=none;fillColor=#434445;aspect=fixed;labelPosition=center;verticalLabelPosition=bottom;verticalAlign=top;align=center;outlineConnect=0;shape=mxgraph.vvd.protection_group_config;fontSize=12;" vertex="1" parent="vRhrMkSg3RcB3QoWlwg8-99">
          <mxGeometry x="155.0087826160863" y="38.34347481021394" width="22.474034620505993" height="23.169107856191744" as="geometry" />
        </mxCell>
        <mxCell id="vRhrMkSg3RcB3QoWlwg8-104" value="IPS" style="pointerEvents=1;shadow=0;dashed=0;html=1;strokeColor=none;fillColor=#434445;aspect=fixed;labelPosition=center;verticalLabelPosition=bottom;verticalAlign=top;align=center;outlineConnect=0;shape=mxgraph.vvd.protection_group;fontSize=12;" vertex="1" parent="vRhrMkSg3RcB3QoWlwg8-99">
          <mxGeometry x="62.79570501742357" y="36.41693581780538" width="22.242343541944074" height="23.169107856191744" as="geometry" />
        </mxCell>
        <mxCell id="vRhrMkSg3RcB3QoWlwg8-105" value="NFW" style="pointerEvents=1;shadow=0;dashed=0;html=1;strokeColor=none;fillColor=#434445;aspect=fixed;labelPosition=center;verticalLabelPosition=bottom;verticalAlign=top;align=center;outlineConnect=0;shape=mxgraph.vvd.logical_firewall;fontSize=12;" vertex="1" parent="vRhrMkSg3RcB3QoWlwg8-99">
          <mxGeometry x="14.491316542482362" y="38.34693581780538" width="20.605059920106523" height="21.238348868175766" as="geometry" />
        </mxCell>
        <mxCell id="vRhrMkSg3RcB3QoWlwg8-106" value="&lt;b&gt;&lt;font style=&quot;font-size: 14px&quot;&gt;...&lt;/font&gt;&lt;/b&gt;" style="pointerEvents=1;shadow=0;dashed=0;html=1;strokeColor=none;fillColor=#434445;aspect=fixed;labelPosition=center;verticalLabelPosition=bottom;verticalAlign=top;align=center;outlineConnect=0;shape=mxgraph.vvd.volumes_agent;fontSize=12;" vertex="1" parent="vRhrMkSg3RcB3QoWlwg8-99">
          <mxGeometry x="192.8504405473553" y="37.95347481021394" width="23.46258322237017" height="23.941411451398135" as="geometry" />
        </mxCell>
        <mxCell id="vRhrMkSg3RcB3QoWlwg8-5" value="剧本管理" style="rounded=1;whiteSpace=wrap;html=1;verticalAlign=top;fontStyle=1" vertex="1" parent="1">
          <mxGeometry x="100" y="68.07692307692307" width="150" height="163.46153846153845" as="geometry" />
        </mxCell>
        <mxCell id="vRhrMkSg3RcB3QoWlwg8-6" value="剧本管理器" style="rounded=0;whiteSpace=wrap;html=1;" vertex="1" parent="1">
          <mxGeometry x="111.25" y="96.92307692307692" width="127.5" height="28.846153846153843" as="geometry" />
        </mxCell>
        <mxCell id="vRhrMkSg3RcB3QoWlwg8-7" value="工作流引擎" style="rounded=0;whiteSpace=wrap;html=1;" vertex="1" parent="1">
          <mxGeometry x="111.25" y="135.38461538461536" width="127.5" height="28.846153846153843" as="geometry" />
        </mxCell>
        <mxCell id="vRhrMkSg3RcB3QoWlwg8-15" value="剧本库" style="shape=cylinder3;whiteSpace=wrap;html=1;boundedLbl=1;backgroundOutline=1;size=15;" vertex="1" parent="1">
          <mxGeometry x="120" y="167.31" width="38.75" height="59.42" as="geometry" />
        </mxCell>
        <mxCell id="vRhrMkSg3RcB3QoWlwg8-16" value="动作管理" style="rounded=1;whiteSpace=wrap;html=1;verticalAlign=top;fontStyle=1" vertex="1" parent="1">
          <mxGeometry x="270" y="68.07692307692307" width="150" height="163.46153846153845" as="geometry" />
        </mxCell>
        <mxCell id="vRhrMkSg3RcB3QoWlwg8-18" value="动作接口" style="rounded=0;whiteSpace=wrap;html=1;" vertex="1" parent="1">
          <mxGeometry x="281.25" y="135.38461538461536" width="127.5" height="28.846153846153843" as="geometry" />
        </mxCell>
        <mxCell id="vRhrMkSg3RcB3QoWlwg8-19" value="动作库" style="shape=cylinder3;whiteSpace=wrap;html=1;boundedLbl=1;backgroundOutline=1;size=15;" vertex="1" parent="1">
          <mxGeometry x="281.25" y="167.31" width="40" height="56.15" as="geometry" />
        </mxCell>
        <mxCell id="vRhrMkSg3RcB3QoWlwg8-20" value="动作接口" style="rounded=0;whiteSpace=wrap;html=1;" vertex="1" parent="1">
          <mxGeometry x="281.25" y="96.92307692307692" width="127.5" height="28.846153846153843" as="geometry" />
        </mxCell>
        <mxCell id="vRhrMkSg3RcB3QoWlwg8-120" value="" style="rounded=0;whiteSpace=wrap;html=1;" vertex="1" parent="1">
          <mxGeometry x="26.25" y="590" width="543.75" height="110" as="geometry" />
        </mxCell>
        <mxCell id="vRhrMkSg3RcB3QoWlwg8-122" value="" style="group" vertex="1" connectable="0" parent="1">
          <mxGeometry x="30" y="870" width="550" height="180" as="geometry" />
        </mxCell>
        <mxCell id="vRhrMkSg3RcB3QoWlwg8-2" value="" style="rounded=0;whiteSpace=wrap;html=1;" vertex="1" parent="vRhrMkSg3RcB3QoWlwg8-122">
          <mxGeometry y="40" width="550" height="140" as="geometry" />
        </mxCell>
        <mxCell id="vRhrMkSg3RcB3QoWlwg8-3" value="安全编排和自动化" style="rounded=0;whiteSpace=wrap;html=1;fillColor=#0050ef;strokeColor=#001DBC;fontColor=#ffffff;fontSize=16;" vertex="1" parent="vRhrMkSg3RcB3QoWlwg8-122">
          <mxGeometry width="550" height="38.46153846153846" as="geometry" />
        </mxCell>
      </root>
    </mxGraphModel>
  </diagram>
</mxfile>
